<svg version="1.1" id="Layer_1" xmlns="http://www.w3.org/2000/svg" xmlns:xlink="http://www.w3.org/1999/xlink" x="0px" y="0px"
	 width="100%" viewBox="0 0 187 186" enable-background="new 0 0 187 186" xml:space="preserve">
<path fill="#FFFFFF" opacity="1.000000" stroke="none" 
	d="
M188.000000,51.000000 
	C188.000000,96.636375 188.000000,141.772751 188.000000,186.954559 
	C125.738777,186.954559 63.477516,186.954559 1.108127,186.954559 
	C1.108127,125.113823 1.108127,63.227402 1.108127,1.170488 
	C63.332943,1.170488 125.666443,1.170488 188.000000,1.170488 
	C188.000000,17.522198 188.000000,34.011097 188.000000,51.000000 
M106.071465,5.031920 
	C101.046104,5.076926 96.020737,5.121931 90.088486,5.030772 
	C86.717262,5.072104 83.346031,5.113436 79.050484,5.010931 
	C54.169380,5.010931 29.288279,5.010931 4.160496,5.010931 
	C4.160496,31.918333 4.160496,58.453587 4.019398,85.913750 
	C4.066349,91.946442 4.113301,97.979126 4.011327,104.937119 
	C4.011327,131.270142 4.011327,157.603180 4.011327,183.838821 
	C29.810787,183.838821 54.898285,183.838821 80.491463,183.946152 
	C80.660019,183.909302 80.828568,183.872437 81.921799,183.975723 
	C86.946747,183.928635 91.971695,183.881561 97.906265,183.974930 
	C101.276779,183.930649 104.647301,183.886368 108.942673,183.988846 
	C133.942490,183.988846 158.942291,183.988846 183.843124,183.988846 
	C183.843124,157.189026 183.843124,131.106781 183.964783,104.091507 
	C183.924026,97.386528 183.883255,90.681557 183.988693,83.047737 
	C183.988693,57.051311 183.988693,31.054884 183.988693,5.156346 
	C158.186554,5.156346 133.101547,5.156346 107.505676,5.051635 
	C107.335823,5.089659 107.165977,5.127682 106.071465,5.031920 
z"/>
<path fill="#F38A3F" opacity="1.000000" stroke="none" 
	d="
M183.842499,83.976578 
	C183.883255,90.681557 183.924026,97.386528 183.561996,104.776718 
	C180.888687,114.048637 179.806717,123.204529 176.038177,131.073837 
	C171.611954,140.316513 164.852371,148.441788 158.790131,156.766693 
	C158.317307,155.510666 158.021332,154.539688 158.020752,153.568527 
	C157.997208,114.406441 157.989090,75.244324 158.046585,36.082306 
	C158.048599,34.703663 158.736221,33.326027 159.408081,32.102562 
	C160.333221,33.193668 160.832245,34.246407 161.594757,35.048702 
	C169.658585,43.533241 175.291290,53.501076 178.917450,64.521683 
	C181.003159,70.860542 182.229401,77.482216 183.842499,83.976578 
z"/>
<path fill="#000000" opacity="1.000000" stroke="none" 
	d="
M4.160496,84.988838 
	C4.160496,58.453587 4.160496,31.918333 4.160496,5.010931 
	C29.288279,5.010931 54.169380,5.010931 79.336777,5.398855 
	C78.067902,6.153024 76.512733,6.519269 74.548080,6.932833 
	C69.427025,8.376151 64.715469,9.772150 59.652565,11.206547 
	C53.851063,14.461223 48.400909,17.677500 42.596722,20.944757 
	C37.813946,24.959238 33.385208,28.922739 28.647913,33.027573 
	C23.858698,39.428646 19.378036,45.688385 14.587349,52.121464 
	C13.188687,54.656155 11.778288,56.925228 11.069833,59.395607 
	C8.634190,67.888680 6.444139,76.452179 4.160496,84.988838 
z"/>
<path fill="#000000" opacity="1.000000" stroke="none" 
	d="
M79.985779,183.838821 
	C54.898285,183.838821 29.810787,183.838821 4.011327,183.838821 
	C4.011327,157.603180 4.011327,131.270142 4.419227,104.706306 
	C5.637159,116.120506 8.845797,127.024170 14.948668,137.407227 
	C19.653637,143.881042 24.305088,149.997437 29.091751,156.416138 
	C33.801018,160.513748 38.375069,164.309067 43.094532,168.417542 
	C49.828232,172.098007 56.416519,175.465332 63.349968,179.006805 
	C69.125343,180.733582 74.555557,182.286209 79.985779,183.838821 
z"/>
<path fill="#000000" opacity="1.000000" stroke="none" 
	d="
M183.915604,83.512161 
	C182.229401,77.482216 181.003159,70.860542 178.917450,64.521683 
	C175.291290,53.501076 169.658585,43.533241 161.594757,35.048702 
	C160.832245,34.246407 160.333221,33.193668 159.268707,31.788258 
	C152.918091,26.862408 147.010651,22.405502 140.937744,17.632446 
	C134.515640,14.600283 128.259018,11.884269 121.650986,8.988884 
	C116.871880,7.591792 112.444214,6.374070 108.016541,5.156346 
	C133.101547,5.156346 158.186554,5.156346 183.988693,5.156346 
	C183.988693,31.054884 183.988693,57.051311 183.915604,83.512161 
z"/>
<path fill="#000000" opacity="1.000000" stroke="none" 
	d="
M159.104736,157.051651 
	C164.852371,148.441788 171.611954,140.316513 176.038177,131.073837 
	C179.806717,123.204529 180.888687,114.048637 183.501160,105.243240 
	C183.843124,131.106781 183.843124,157.189026 183.843124,183.988846 
	C158.942291,183.988846 133.942490,183.988846 108.686714,183.584808 
	C111.635948,182.489929 114.841148,181.799088 118.438507,181.059509 
	C125.587463,178.025131 132.344254,175.039490 139.459656,172.021454 
	C146.247086,167.009918 152.675903,162.030792 159.104736,157.051651 
z"/>
<path fill="#F0713D" opacity="1.000000" stroke="none" 
	d="
M118.046341,181.108246 
	C114.841148,181.799088 111.635948,182.489929 108.224289,183.511444 
	C104.647301,183.886368 101.276779,183.930649 97.452545,183.447266 
	C96.999199,160.773865 97.041130,138.627930 96.928040,116.482780 
	C96.918030,114.523857 95.896454,112.570091 95.714706,110.422852 
	C103.056343,108.507019 110.027985,106.782249 116.999786,105.522537 
	C116.999969,128.931061 116.972870,151.874634 117.045540,174.817871 
	C117.052185,176.915695 117.697563,179.011505 118.046341,181.108246 
z"/>
<path fill="#EE6A3D" opacity="1.000000" stroke="none" 
	d="
M95.344704,110.613930 
	C95.896454,112.570091 96.918030,114.523857 96.928040,116.482780 
	C97.041130,138.627930 96.999199,160.773865 96.997734,183.377045 
	C91.971695,183.881561 86.946747,183.928635 81.460411,183.448090 
	C80.940170,159.737930 80.881317,136.555435 81.168411,113.227066 
	C86.124466,112.258781 90.734581,111.436356 95.344704,110.613930 
z"/>
<path fill="#EE643D" opacity="1.000000" stroke="none" 
	d="
M80.822464,113.372925 
	C80.881317,136.555435 80.940170,159.737930 80.998077,183.378021 
	C80.828568,183.872437 80.660019,183.909302 80.238617,183.892487 
	C74.555557,182.286209 69.125343,180.733582 63.348503,178.549316 
	C63.000488,167.975540 62.999100,158.033417 63.350086,147.910049 
	C70.526192,147.859375 74.538055,144.295807 75.756569,137.849670 
	C77.048187,131.016785 77.765961,124.077042 78.910629,117.213364 
	C79.135590,115.864456 80.164391,114.649605 80.822464,113.372925 
z"/>
<path fill="#EA413A" opacity="1.000000" stroke="none" 
	d="
M14.895149,137.049820 
	C8.845797,127.024170 5.637159,116.120506 4.493690,104.243652 
	C4.113301,97.979126 4.066349,91.946442 4.089947,85.451294 
	C6.444139,76.452179 8.634190,67.888680 11.069833,59.395607 
	C11.778288,56.925228 13.188687,54.656155 14.901793,52.406807 
	C15.683126,53.323349 15.976325,54.127758 15.977087,54.932442 
	C16.001886,81.093849 16.013285,107.255318 15.952524,133.416611 
	C15.949710,134.628479 15.263224,135.838791 14.895149,137.049820 
z"/>
<path fill="#EE673D" opacity="1.000000" stroke="none" 
	d="
M74.957573,6.885514 
	C76.512733,6.519269 78.067902,6.153024 79.798935,5.470774 
	C83.346031,5.113436 86.717262,5.072104 90.543411,5.556216 
	C91.003479,17.785378 91.008629,29.489094 90.746544,41.418839 
	C85.768257,44.470261 81.057198,47.295647 75.994293,49.862785 
	C75.428307,47.824387 75.037979,46.045193 75.028313,44.263927 
	C74.960678,31.804695 74.971718,19.345036 74.957573,6.885514 
z"/>
<path fill="#F06E3D" opacity="1.000000" stroke="none" 
	d="
M91.013779,41.192810 
	C91.008629,29.489094 91.003479,17.785378 90.996857,5.624298 
	C96.020737,5.121931 101.046104,5.076926 106.535049,5.556231 
	C106.999260,17.396399 106.999878,28.712255 106.539886,40.052475 
	C101.057449,40.448833 96.035614,40.820824 91.013779,41.192810 
z"/>
<path fill="#F0753E" opacity="1.000000" stroke="none" 
	d="
M107.000496,40.028111 
	C106.999878,28.712255 106.999260,17.396399 106.997383,5.623124 
	C107.165977,5.127682 107.335823,5.089659 107.761108,5.103991 
	C112.444214,6.374070 116.871880,7.591792 121.650253,9.446405 
	C121.998291,20.731571 121.995621,31.379845 121.592270,42.015007 
	C116.461220,41.343967 111.730858,40.686039 107.000496,40.028111 
z"/>
<path fill="#F2833F" opacity="1.000000" stroke="none" 
	d="
M158.790131,156.766693 
	C152.675903,162.030792 146.247086,167.009918 139.145844,171.735535 
	C138.313278,164.452118 138.153122,157.422195 138.405151,150.296143 
	C147.115051,149.452042 154.240829,141.105637 153.525787,132.695557 
	C153.282028,129.828552 152.271988,127.451256 148.656845,126.816071 
	C144.971466,126.168533 141.429169,124.706726 137.871857,123.097076 
	C137.946335,117.489616 138.126831,112.381325 137.954224,107.284981 
	C137.800095,102.734207 137.256012,98.196640 137.035492,93.356812 
	C138.513107,90.476875 140.272934,88.022156 141.085373,85.286118 
	C143.694138,76.500595 141.448883,68.061050 138.799515,59.303947 
	C139.325714,56.937923 139.935028,55.005005 139.954147,53.066261 
	C140.052719,43.072094 139.948364,33.075909 140.049561,23.081793 
	C140.066940,21.367348 140.735489,19.659496 141.103226,17.948597 
	C147.010651,22.405502 152.918091,26.862408 158.964905,31.633617 
	C158.736221,33.326027 158.048599,34.703663 158.046585,36.082306 
	C157.989090,75.244324 157.997208,114.406441 158.020752,153.568527 
	C158.021332,154.539688 158.317307,155.510666 158.790131,156.766693 
z"/>
<path fill="#ED583C" opacity="1.000000" stroke="none" 
	d="
M62.997711,148.091293 
	C62.999100,158.033417 63.000488,167.975540 63.003342,178.375153 
	C56.416519,175.465332 49.828232,172.098007 43.264206,168.026855 
	C43.525646,165.534637 43.968414,163.746429 43.969936,161.957855 
	C44.008183,117.034447 44.014126,72.110970 43.955479,27.187595 
	C43.952740,25.089222 43.300507,22.991697 42.950760,20.893778 
	C48.400909,17.677500 53.851063,14.461223 59.651363,11.664026 
	C59.997700,33.617580 59.993893,55.152058 59.696404,76.881912 
	C57.432690,80.137390 55.126602,83.036217 53.564144,86.291916 
	C50.519379,92.636307 48.708569,99.980431 52.141045,106.022064 
	C55.340210,111.653038 54.193176,116.346100 53.143330,121.605919 
	C52.949005,122.579506 52.699398,123.542076 52.474373,124.509514 
	C50.928005,131.157684 49.188007,137.455460 54.256989,143.936737 
	C56.888378,147.301285 59.171452,148.590012 62.997711,148.091293 
z"/>
<path fill="#EC4F3B" opacity="1.000000" stroke="none" 
	d="
M42.596725,20.944757 
	C43.300507,22.991697 43.952740,25.089222 43.955479,27.187595 
	C44.014126,72.110970 44.008183,117.034447 43.969936,161.957855 
	C43.968414,163.746429 43.525646,165.534637 43.118797,167.713715 
	C38.375069,164.309067 33.801018,160.513748 29.104992,155.939865 
	C28.974169,114.402946 28.965317,73.644592 28.956467,32.886242 
	C33.385208,28.922739 37.813946,24.959238 42.596725,20.944757 
z"/>
<path fill="#EB483A" opacity="1.000000" stroke="none" 
	d="
M28.647913,33.027573 
	C28.965317,73.644592 28.974169,114.402946 28.969780,155.637573 
	C24.305088,149.997437 19.653637,143.881042 14.948666,137.407227 
	C15.263224,135.838791 15.949710,134.628479 15.952524,133.416611 
	C16.013285,107.255318 16.001886,81.093849 15.977087,54.932442 
	C15.976325,54.127758 15.683126,53.323349 15.211821,52.233467 
	C19.378036,45.688385 23.858698,39.428646 28.647913,33.027573 
z"/>
<path fill="#EE603D" opacity="1.000000" stroke="none" 
	d="
M59.990086,76.686531 
	C59.993893,55.152058 59.997700,33.617580 60.002712,11.625628 
	C64.715469,9.772150 69.427025,8.376151 74.548080,6.932833 
	C74.971718,19.345036 74.960678,31.804695 75.028313,44.263927 
	C75.037979,46.045193 75.428307,47.824387 75.834885,50.172306 
	C71.015816,56.793728 67.369347,63.475426 65.714737,71.275299 
	C65.132729,74.018921 64.129906,77.264473 59.990086,76.686531 
z"/>
<path fill="#F17C3F" opacity="1.000000" stroke="none" 
	d="
M140.937744,17.632446 
	C140.735489,19.659496 140.066940,21.367348 140.049561,23.081793 
	C139.948364,33.075909 140.052719,43.072094 139.954147,53.066261 
	C139.935028,55.005005 139.325714,56.937923 138.581314,59.005188 
	C134.955826,51.376389 130.525467,44.762405 121.992958,42.028118 
	C121.995621,31.379845 121.998291,20.731571 122.001678,9.625776 
	C128.259018,11.884269 134.515640,14.600283 140.937744,17.632446 
z"/>
<path fill="#F17A3E" opacity="1.000000" stroke="none" 
	d="
M136.884003,93.653244 
	C137.256012,98.196640 137.800095,102.734207 137.954224,107.284981 
	C138.126831,112.381325 137.946335,117.489616 137.535965,123.006905 
	C134.978592,125.839043 132.588516,128.102188 130.707520,130.729767 
	C129.469040,132.459793 127.855431,135.037674 128.332520,136.675949 
	C129.944168,142.210159 131.595215,148.085785 137.992950,150.392288 
	C138.153122,157.422195 138.313278,164.452118 138.787262,171.767944 
	C132.344254,175.039490 125.587463,178.025131 118.438507,181.059509 
	C117.697563,179.011505 117.052185,176.915695 117.045540,174.817871 
	C116.972870,151.874634 116.999969,128.931061 117.287613,105.307831 
	C124.011520,100.969795 130.447754,97.311516 136.884003,93.653244 
z"/>
<path fill="#FFFEFD" opacity="1.000000" stroke="none" 
	d="
M137.035492,93.356812 
	C130.447754,97.311516 124.011520,100.969795 117.287453,104.842773 
	C110.027985,106.782249 103.056343,108.507019 95.714706,110.422852 
	C90.734581,111.436356 86.124466,112.258781 81.168404,113.227066 
	C80.164391,114.649605 79.135590,115.864456 78.910629,117.213364 
	C77.765961,124.077042 77.048187,131.016785 75.756569,137.849670 
	C74.538055,144.295807 70.526192,147.859375 63.350086,147.910049 
	C59.171452,148.590012 56.888378,147.301285 54.256989,143.936737 
	C49.188007,137.455460 50.928005,131.157684 52.474373,124.509514 
	C52.699398,123.542076 52.949005,122.579506 53.143330,121.605919 
	C54.193176,116.346100 55.340210,111.653038 52.141045,106.022064 
	C48.708569,99.980431 50.519379,92.636307 53.564144,86.291916 
	C55.126602,83.036217 57.432690,80.137390 59.696404,76.881912 
	C64.129906,77.264473 65.132729,74.018921 65.714737,71.275299 
	C67.369347,63.475426 71.015816,56.793728 76.186729,50.430550 
	C81.057198,47.295647 85.768257,44.470261 90.746544,41.418839 
	C96.035614,40.820824 101.057449,40.448833 106.539886,40.052475 
	C111.730858,40.686039 116.461220,41.343967 121.592270,42.015007 
	C130.525467,44.762405 134.955826,51.376389 138.392197,59.435608 
	C141.448883,68.061050 143.694138,76.500595 141.085373,85.286118 
	C140.272934,88.022156 138.513107,90.476875 137.035492,93.356812 
M106.466621,78.895935 
	C110.731857,77.383057 114.997093,75.870186 119.262329,74.357307 
	C119.189949,73.828209 119.117569,73.299118 119.045197,72.770020 
	C113.242676,69.061470 106.797096,67.909676 99.873665,68.376961 
	C92.188904,68.895630 87.304695,72.538422 85.423683,80.225975 
	C84.655312,83.366234 85.688004,84.506233 88.510941,83.814201 
	C94.280388,82.399841 99.972717,80.670891 106.466621,78.895935 
z"/>
<path fill="#FFFDFC" opacity="1.000000" stroke="none" 
	d="
M138.405151,150.296143 
	C131.595215,148.085785 129.944168,142.210159 128.332520,136.675949 
	C127.855431,135.037674 129.469040,132.459793 130.707520,130.729767 
	C132.588516,128.102188 134.978592,125.839043 137.488312,123.511261 
	C141.429169,124.706726 144.971466,126.168533 148.656845,126.816071 
	C152.271988,127.451256 153.282028,129.828552 153.525787,132.695557 
	C154.240829,141.105637 147.115051,149.452042 138.405151,150.296143 
z"/>
<path fill="#F07343" opacity="1.000000" stroke="none" 
	d="
M106.081718,78.983719 
	C99.972717,80.670891 94.280388,82.399841 88.510941,83.814201 
	C85.688004,84.506233 84.655312,83.366234 85.423683,80.225975 
	C87.304695,72.538422 92.188904,68.895630 99.873665,68.376961 
	C106.797096,67.909676 113.242676,69.061470 119.045197,72.770020 
	C119.117569,73.299118 119.189949,73.828209 119.262329,74.357307 
	C114.997093,75.870186 110.731857,77.383057 106.081718,78.983719 
z"/>
</svg>